<mxfile host="app.diagrams.net" modified="2022-04-15T05:27:33.664Z" agent="5.0 (Windows NT 10.0; Win64; x64) AppleWebKit/537.36 (KHTML, like Gecko) Chrome/100.0.4896.75 Safari/537.36" etag="1IsJsJ3EQ3tltHXlqA8C" version="17.4.4" type="github">
  <diagram id="kkbW6cZQbscL8s5G3EZI" name="Page-1">
    <mxGraphModel dx="2518" dy="2207" grid="1" gridSize="10" guides="1" tooltips="1" connect="1" arrows="1" fold="1" page="1" pageScale="1" pageWidth="827" pageHeight="1169" math="0" shadow="0">
      <root>
        <mxCell id="0" />
        <mxCell id="1" parent="0" />
        <mxCell id="7aIImnM2KkTJNSzlAETj-1" value="&lt;font style=&quot;font-size: 14px&quot;&gt;Student&lt;/font&gt;" style="rounded=1;whiteSpace=wrap;html=1;" vertex="1" parent="1">
          <mxGeometry x="220" y="150" width="120" height="60" as="geometry" />
        </mxCell>
        <mxCell id="7aIImnM2KkTJNSzlAETj-2" value="&lt;font style=&quot;font-size: 14px&quot;&gt;Name&lt;/font&gt;" style="ellipse;whiteSpace=wrap;html=1;" vertex="1" parent="1">
          <mxGeometry x="90" y="90" width="100" height="50" as="geometry" />
        </mxCell>
        <mxCell id="7aIImnM2KkTJNSzlAETj-3" value="&lt;u&gt;&lt;font style=&quot;font-size: 14px&quot;&gt;ID&lt;/font&gt;&lt;/u&gt;" style="ellipse;whiteSpace=wrap;html=1;" vertex="1" parent="1">
          <mxGeometry x="230" y="50" width="100" height="50" as="geometry" />
        </mxCell>
        <mxCell id="7aIImnM2KkTJNSzlAETj-4" value="&lt;font style=&quot;font-size: 14px&quot;&gt;Degree&lt;/font&gt;" style="ellipse;whiteSpace=wrap;html=1;" vertex="1" parent="1">
          <mxGeometry x="50" y="250" width="100" height="50" as="geometry" />
        </mxCell>
        <mxCell id="7aIImnM2KkTJNSzlAETj-5" value="&lt;font style=&quot;font-size: 14px&quot;&gt;Attend&lt;/font&gt;" style="strokeWidth=1;html=1;shape=mxgraph.flowchart.decision;whiteSpace=wrap;" vertex="1" parent="1">
          <mxGeometry x="270" y="300" width="126" height="50" as="geometry" />
        </mxCell>
        <mxCell id="7aIImnM2KkTJNSzlAETj-6" value="&lt;font style=&quot;font-size: 14px&quot;&gt;Result&lt;/font&gt;" style="ellipse;whiteSpace=wrap;html=1;" vertex="1" parent="1">
          <mxGeometry x="140" y="360" width="100" height="50" as="geometry" />
        </mxCell>
        <mxCell id="7aIImnM2KkTJNSzlAETj-7" value="&lt;font style=&quot;font-size: 14px&quot;&gt;Penalty&lt;/font&gt;" style="ellipse;whiteSpace=wrap;html=1;" vertex="1" parent="1">
          <mxGeometry x="240" y="400" width="100" height="50" as="geometry" />
        </mxCell>
        <mxCell id="7aIImnM2KkTJNSzlAETj-8" value="&lt;font style=&quot;font-size: 14px&quot;&gt;Conduct&lt;/font&gt;" style="strokeWidth=1;html=1;shape=mxgraph.flowchart.decision;whiteSpace=wrap;" vertex="1" parent="1">
          <mxGeometry x="434" y="155" width="126" height="50" as="geometry" />
        </mxCell>
        <mxCell id="7aIImnM2KkTJNSzlAETj-9" value="&lt;font style=&quot;font-size: 14px&quot;&gt;Misconduct Case&lt;/font&gt;" style="rounded=1;whiteSpace=wrap;html=1;" vertex="1" parent="1">
          <mxGeometry x="620" y="150" width="120" height="60" as="geometry" />
        </mxCell>
        <mxCell id="7aIImnM2KkTJNSzlAETj-10" value="&lt;u&gt;&lt;font style=&quot;font-size: 14px&quot;&gt;Case ID&lt;/font&gt;&lt;/u&gt;" style="ellipse;whiteSpace=wrap;html=1;" vertex="1" parent="1">
          <mxGeometry x="470" y="-40" width="100" height="50" as="geometry" />
        </mxCell>
        <mxCell id="7aIImnM2KkTJNSzlAETj-11" value="&lt;font style=&quot;font-size: 14px&quot;&gt;Assessment&lt;br&gt;Type&lt;/font&gt;" style="ellipse;whiteSpace=wrap;html=1;" vertex="1" parent="1">
          <mxGeometry x="420" y="30" width="100" height="50" as="geometry" />
        </mxCell>
        <mxCell id="7aIImnM2KkTJNSzlAETj-12" value="&lt;font style=&quot;font-size: 14px&quot;&gt;Assessment&lt;br&gt;Weight&lt;/font&gt;" style="ellipse;whiteSpace=wrap;html=1;" vertex="1" parent="1">
          <mxGeometry x="620" y="-30" width="100" height="50" as="geometry" />
        </mxCell>
        <mxCell id="7aIImnM2KkTJNSzlAETj-13" value="&lt;font style=&quot;font-size: 14px&quot;&gt;Assessment&lt;br&gt;Number&lt;/font&gt;" style="ellipse;whiteSpace=wrap;html=1;" vertex="1" parent="1">
          <mxGeometry x="727" y="-20" width="100" height="50" as="geometry" />
        </mxCell>
        <mxCell id="7aIImnM2KkTJNSzlAETj-14" value="&lt;font style=&quot;font-size: 14px&quot;&gt;Breach Type&lt;/font&gt;" style="ellipse;whiteSpace=wrap;html=1;" vertex="1" parent="1">
          <mxGeometry x="770" y="50" width="100" height="50" as="geometry" />
        </mxCell>
        <mxCell id="7aIImnM2KkTJNSzlAETj-15" value="&lt;font style=&quot;font-size: 14px&quot;&gt;&lt;br&gt;Happened&lt;br&gt;in&lt;/font&gt;" style="strokeWidth=1;html=1;shape=mxgraph.flowchart.decision;whiteSpace=wrap;" vertex="1" parent="1">
          <mxGeometry x="820" y="152.5" width="126" height="55" as="geometry" />
        </mxCell>
        <mxCell id="7aIImnM2KkTJNSzlAETj-16" value="&lt;font style=&quot;font-size: 14px&quot;&gt;Subjects&lt;/font&gt;" style="rounded=0;whiteSpace=wrap;html=1;" vertex="1" parent="1">
          <mxGeometry x="1003" y="150" width="120" height="60" as="geometry" />
        </mxCell>
        <mxCell id="7aIImnM2KkTJNSzlAETj-17" value="&lt;u&gt;&lt;font style=&quot;font-size: 14px&quot;&gt;Code&lt;/font&gt;&lt;/u&gt;" style="ellipse;whiteSpace=wrap;html=1;" vertex="1" parent="1">
          <mxGeometry x="946" y="60" width="100" height="50" as="geometry" />
        </mxCell>
        <mxCell id="7aIImnM2KkTJNSzlAETj-18" value="&lt;font style=&quot;font-size: 14px&quot;&gt;Name&lt;/font&gt;" style="ellipse;whiteSpace=wrap;html=1;" vertex="1" parent="1">
          <mxGeometry x="1060" y="60" width="100" height="50" as="geometry" />
        </mxCell>
        <mxCell id="7aIImnM2KkTJNSzlAETj-19" value="&lt;font style=&quot;font-size: 14px&quot;&gt;Facilitated&lt;br&gt;by&lt;/font&gt;" style="strokeWidth=1;html=1;shape=mxgraph.flowchart.decision;whiteSpace=wrap;shadow=0;sketch=0;" vertex="1" parent="1">
          <mxGeometry x="1200" y="152.5" width="126" height="55" as="geometry" />
        </mxCell>
        <mxCell id="7aIImnM2KkTJNSzlAETj-20" value="&lt;font style=&quot;font-size: 14px&quot;&gt;learning facilitator&lt;/font&gt;" style="rounded=1;whiteSpace=wrap;html=1;" vertex="1" parent="1">
          <mxGeometry x="1203" y="270" width="120" height="60" as="geometry" />
        </mxCell>
        <mxCell id="7aIImnM2KkTJNSzlAETj-21" value="&lt;u&gt;&lt;font style=&quot;font-size: 14px&quot;&gt;Name&lt;/font&gt;&lt;/u&gt;" style="ellipse;whiteSpace=wrap;html=1;" vertex="1" parent="1">
          <mxGeometry x="1213" y="370" width="100" height="50" as="geometry" />
        </mxCell>
        <mxCell id="7aIImnM2KkTJNSzlAETj-22" value="&lt;font style=&quot;font-size: 14px&quot;&gt;Cordinate By&lt;/font&gt;" style="strokeWidth=1;html=1;shape=mxgraph.flowchart.decision;whiteSpace=wrap;" vertex="1" parent="1">
          <mxGeometry x="1000" y="265" width="126" height="70" as="geometry" />
        </mxCell>
        <mxCell id="7aIImnM2KkTJNSzlAETj-23" value="&lt;font style=&quot;font-size: 14px&quot;&gt;Coordinator&lt;/font&gt;" style="rounded=1;whiteSpace=wrap;html=1;" vertex="1" parent="1">
          <mxGeometry x="1003" y="395" width="120" height="60" as="geometry" />
        </mxCell>
        <mxCell id="7aIImnM2KkTJNSzlAETj-24" value="&lt;u&gt;&lt;font style=&quot;font-size: 14px&quot;&gt;Name&lt;/font&gt;&lt;/u&gt;" style="ellipse;whiteSpace=wrap;html=1;" vertex="1" parent="1">
          <mxGeometry x="1013" y="520" width="100" height="50" as="geometry" />
        </mxCell>
        <mxCell id="7aIImnM2KkTJNSzlAETj-25" value="&lt;font style=&quot;font-size: 14px&quot;&gt;Arranged by&lt;/font&gt;" style="strokeWidth=1;html=1;shape=mxgraph.flowchart.decision;whiteSpace=wrap;" vertex="1" parent="1">
          <mxGeometry x="820" y="400" width="126" height="50" as="geometry" />
        </mxCell>
        <mxCell id="7aIImnM2KkTJNSzlAETj-26" value="&lt;font style=&quot;font-size: 14px&quot;&gt;Judege to host&lt;/font&gt;" style="strokeWidth=1;html=1;shape=mxgraph.flowchart.decision;whiteSpace=wrap;" vertex="1" parent="1">
          <mxGeometry x="617" y="280" width="126" height="50" as="geometry" />
        </mxCell>
        <mxCell id="7aIImnM2KkTJNSzlAETj-27" value="&lt;font style=&quot;font-size: 14px&quot;&gt;Meeting&lt;/font&gt;" style="rounded=1;whiteSpace=wrap;html=1;" vertex="1" parent="1">
          <mxGeometry x="620" y="395" width="120" height="60" as="geometry" />
        </mxCell>
        <mxCell id="7aIImnM2KkTJNSzlAETj-28" value="&lt;u&gt;&lt;font style=&quot;font-size: 14px&quot;&gt;Meeting ID&lt;/font&gt;&lt;/u&gt;" style="ellipse;whiteSpace=wrap;html=1;" vertex="1" parent="1">
          <mxGeometry x="770" y="490" width="100" height="50" as="geometry" />
        </mxCell>
        <mxCell id="7aIImnM2KkTJNSzlAETj-29" value="&lt;font style=&quot;font-size: 14px&quot;&gt;Minutes&lt;/font&gt;" style="ellipse;whiteSpace=wrap;html=1;" vertex="1" parent="1">
          <mxGeometry x="650" y="510" width="100" height="50" as="geometry" />
        </mxCell>
        <mxCell id="7aIImnM2KkTJNSzlAETj-30" value="&lt;font style=&quot;font-size: 14px&quot;&gt;Time&lt;/font&gt;" style="ellipse;whiteSpace=wrap;html=1;" vertex="1" parent="1">
          <mxGeometry x="535" y="490" width="100" height="50" as="geometry" />
        </mxCell>
        <mxCell id="7aIImnM2KkTJNSzlAETj-31" value="&lt;font style=&quot;font-size: 14px&quot;&gt;Date&lt;/font&gt;" style="ellipse;whiteSpace=wrap;html=1;" vertex="1" parent="1">
          <mxGeometry x="453" y="400" width="100" height="50" as="geometry" />
        </mxCell>
        <mxCell id="7aIImnM2KkTJNSzlAETj-32" value="" style="endArrow=none;html=1;rounded=0;exitX=1;exitY=0.5;exitDx=0;exitDy=0;exitPerimeter=0;" edge="1" parent="1" source="7aIImnM2KkTJNSzlAETj-15">
          <mxGeometry width="50" height="50" relative="1" as="geometry">
            <mxPoint x="953" y="230" as="sourcePoint" />
            <mxPoint x="1003" y="180" as="targetPoint" />
          </mxGeometry>
        </mxCell>
        <mxCell id="7aIImnM2KkTJNSzlAETj-33" value="" style="endArrow=none;html=1;rounded=0;" edge="1" parent="1">
          <mxGeometry width="50" height="50" relative="1" as="geometry">
            <mxPoint x="1060" y="150" as="sourcePoint" />
            <mxPoint x="1100" y="110" as="targetPoint" />
          </mxGeometry>
        </mxCell>
        <mxCell id="7aIImnM2KkTJNSzlAETj-34" value="" style="endArrow=none;html=1;rounded=0;entryX=0;entryY=0.5;entryDx=0;entryDy=0;exitX=1;exitY=0.5;exitDx=0;exitDy=0;" edge="1" parent="1" source="7aIImnM2KkTJNSzlAETj-31" target="7aIImnM2KkTJNSzlAETj-27">
          <mxGeometry width="50" height="50" relative="1" as="geometry">
            <mxPoint x="400" y="550" as="sourcePoint" />
            <mxPoint x="450" y="500" as="targetPoint" />
          </mxGeometry>
        </mxCell>
        <mxCell id="7aIImnM2KkTJNSzlAETj-35" value="" style="endArrow=none;html=1;rounded=0;entryX=0.5;entryY=1;entryDx=0;entryDy=0;exitX=0.5;exitY=0;exitDx=0;exitDy=0;" edge="1" parent="1" source="7aIImnM2KkTJNSzlAETj-30" target="7aIImnM2KkTJNSzlAETj-27">
          <mxGeometry width="50" height="50" relative="1" as="geometry">
            <mxPoint x="420" y="550" as="sourcePoint" />
            <mxPoint x="470" y="500" as="targetPoint" />
          </mxGeometry>
        </mxCell>
        <mxCell id="7aIImnM2KkTJNSzlAETj-36" value="" style="endArrow=none;html=1;rounded=0;entryX=0.5;entryY=1;entryDx=0;entryDy=0;" edge="1" parent="1" source="7aIImnM2KkTJNSzlAETj-29" target="7aIImnM2KkTJNSzlAETj-27">
          <mxGeometry width="50" height="50" relative="1" as="geometry">
            <mxPoint x="380" y="580" as="sourcePoint" />
            <mxPoint x="710" y="460" as="targetPoint" />
          </mxGeometry>
        </mxCell>
        <mxCell id="7aIImnM2KkTJNSzlAETj-37" value="" style="endArrow=none;html=1;rounded=0;exitX=0.5;exitY=0;exitDx=0;exitDy=0;entryX=1;entryY=0.75;entryDx=0;entryDy=0;" edge="1" parent="1" source="7aIImnM2KkTJNSzlAETj-28" target="7aIImnM2KkTJNSzlAETj-27">
          <mxGeometry width="50" height="50" relative="1" as="geometry">
            <mxPoint x="480" y="550" as="sourcePoint" />
            <mxPoint x="770" y="450" as="targetPoint" />
          </mxGeometry>
        </mxCell>
        <mxCell id="7aIImnM2KkTJNSzlAETj-38" value="" style="endArrow=none;html=1;rounded=0;exitX=1;exitY=0.5;exitDx=0;exitDy=0;entryX=0;entryY=0.5;entryDx=0;entryDy=0;entryPerimeter=0;" edge="1" parent="1" source="7aIImnM2KkTJNSzlAETj-27" target="7aIImnM2KkTJNSzlAETj-25">
          <mxGeometry width="50" height="50" relative="1" as="geometry">
            <mxPoint x="430" y="550" as="sourcePoint" />
            <mxPoint x="480" y="500" as="targetPoint" />
          </mxGeometry>
        </mxCell>
        <mxCell id="7aIImnM2KkTJNSzlAETj-39" value="" style="endArrow=none;html=1;rounded=0;entryX=1;entryY=0.5;entryDx=0;entryDy=0;entryPerimeter=0;exitX=0;exitY=0.5;exitDx=0;exitDy=0;" edge="1" parent="1" source="7aIImnM2KkTJNSzlAETj-23" target="7aIImnM2KkTJNSzlAETj-25">
          <mxGeometry width="50" height="50" relative="1" as="geometry">
            <mxPoint x="1160" y="560" as="sourcePoint" />
            <mxPoint x="1210" y="510" as="targetPoint" />
          </mxGeometry>
        </mxCell>
        <mxCell id="7aIImnM2KkTJNSzlAETj-40" value="" style="endArrow=none;html=1;rounded=0;entryX=0.5;entryY=1;entryDx=0;entryDy=0;" edge="1" parent="1" source="7aIImnM2KkTJNSzlAETj-24" target="7aIImnM2KkTJNSzlAETj-23">
          <mxGeometry width="50" height="50" relative="1" as="geometry">
            <mxPoint x="1200" y="580" as="sourcePoint" />
            <mxPoint x="1250" y="530" as="targetPoint" />
          </mxGeometry>
        </mxCell>
        <mxCell id="7aIImnM2KkTJNSzlAETj-41" value="" style="endArrow=none;html=1;rounded=0;entryX=0.5;entryY=1;entryDx=0;entryDy=0;entryPerimeter=0;exitX=0.5;exitY=0;exitDx=0;exitDy=0;" edge="1" parent="1" source="7aIImnM2KkTJNSzlAETj-23" target="7aIImnM2KkTJNSzlAETj-22">
          <mxGeometry width="50" height="50" relative="1" as="geometry">
            <mxPoint x="1200" y="570" as="sourcePoint" />
            <mxPoint x="1250" y="520" as="targetPoint" />
          </mxGeometry>
        </mxCell>
        <mxCell id="7aIImnM2KkTJNSzlAETj-42" value="" style="endArrow=none;html=1;rounded=0;entryX=0.5;entryY=1;entryDx=0;entryDy=0;" edge="1" parent="1" source="7aIImnM2KkTJNSzlAETj-22" target="7aIImnM2KkTJNSzlAETj-16">
          <mxGeometry width="50" height="50" relative="1" as="geometry">
            <mxPoint x="1270" y="570" as="sourcePoint" />
            <mxPoint x="1320" y="520" as="targetPoint" />
          </mxGeometry>
        </mxCell>
        <mxCell id="7aIImnM2KkTJNSzlAETj-43" value="" style="endArrow=none;html=1;rounded=0;entryX=1;entryY=0.5;entryDx=0;entryDy=0;exitX=0;exitY=0.5;exitDx=0;exitDy=0;exitPerimeter=0;" edge="1" parent="1" source="7aIImnM2KkTJNSzlAETj-19" target="7aIImnM2KkTJNSzlAETj-16">
          <mxGeometry width="50" height="50" relative="1" as="geometry">
            <mxPoint x="1250" y="520" as="sourcePoint" />
            <mxPoint x="1300" y="470" as="targetPoint" />
          </mxGeometry>
        </mxCell>
        <mxCell id="7aIImnM2KkTJNSzlAETj-44" value="" style="endArrow=none;html=1;rounded=0;entryX=0.5;entryY=1;entryDx=0;entryDy=0;entryPerimeter=0;exitX=0.5;exitY=0;exitDx=0;exitDy=0;" edge="1" parent="1" source="7aIImnM2KkTJNSzlAETj-20" target="7aIImnM2KkTJNSzlAETj-19">
          <mxGeometry width="50" height="50" relative="1" as="geometry">
            <mxPoint x="1210" y="510" as="sourcePoint" />
            <mxPoint x="1260" y="460" as="targetPoint" />
          </mxGeometry>
        </mxCell>
        <mxCell id="7aIImnM2KkTJNSzlAETj-45" value="" style="endArrow=none;html=1;rounded=0;entryX=0.5;entryY=1;entryDx=0;entryDy=0;" edge="1" parent="1" source="7aIImnM2KkTJNSzlAETj-21" target="7aIImnM2KkTJNSzlAETj-20">
          <mxGeometry width="50" height="50" relative="1" as="geometry">
            <mxPoint x="1220" y="540" as="sourcePoint" />
            <mxPoint x="1270" y="490" as="targetPoint" />
          </mxGeometry>
        </mxCell>
        <mxCell id="7aIImnM2KkTJNSzlAETj-46" value="" style="endArrow=none;html=1;rounded=0;exitX=0.5;exitY=0;exitDx=0;exitDy=0;" edge="1" parent="1" source="7aIImnM2KkTJNSzlAETj-16" target="7aIImnM2KkTJNSzlAETj-17">
          <mxGeometry width="50" height="50" relative="1" as="geometry">
            <mxPoint x="1200" y="550" as="sourcePoint" />
            <mxPoint x="1250" y="500" as="targetPoint" />
          </mxGeometry>
        </mxCell>
        <mxCell id="7aIImnM2KkTJNSzlAETj-47" value="" style="endArrow=none;html=1;rounded=0;entryX=0;entryY=0.5;entryDx=0;entryDy=0;entryPerimeter=0;exitX=1;exitY=0.5;exitDx=0;exitDy=0;" edge="1" parent="1" source="7aIImnM2KkTJNSzlAETj-9" target="7aIImnM2KkTJNSzlAETj-15">
          <mxGeometry width="50" height="50" relative="1" as="geometry">
            <mxPoint x="860" y="310" as="sourcePoint" />
            <mxPoint x="910" y="260" as="targetPoint" />
          </mxGeometry>
        </mxCell>
        <mxCell id="7aIImnM2KkTJNSzlAETj-48" value="" style="endArrow=none;html=1;rounded=0;entryX=0.5;entryY=1;entryDx=0;entryDy=0;exitX=1;exitY=0.25;exitDx=0;exitDy=0;" edge="1" parent="1" source="7aIImnM2KkTJNSzlAETj-9" target="7aIImnM2KkTJNSzlAETj-14">
          <mxGeometry width="50" height="50" relative="1" as="geometry">
            <mxPoint x="760" y="160" as="sourcePoint" />
            <mxPoint x="1380" y="490" as="targetPoint" />
          </mxGeometry>
        </mxCell>
        <mxCell id="7aIImnM2KkTJNSzlAETj-49" value="" style="endArrow=none;html=1;rounded=0;entryX=0.5;entryY=1;entryDx=0;entryDy=0;exitX=0.558;exitY=-0.017;exitDx=0;exitDy=0;exitPerimeter=0;" edge="1" parent="1" source="7aIImnM2KkTJNSzlAETj-9" target="7aIImnM2KkTJNSzlAETj-13">
          <mxGeometry width="50" height="50" relative="1" as="geometry">
            <mxPoint x="710" y="140" as="sourcePoint" />
            <mxPoint x="750" y="70" as="targetPoint" />
          </mxGeometry>
        </mxCell>
        <mxCell id="7aIImnM2KkTJNSzlAETj-50" value="" style="endArrow=none;html=1;rounded=0;entryX=0.5;entryY=1;entryDx=0;entryDy=0;" edge="1" parent="1" target="7aIImnM2KkTJNSzlAETj-12">
          <mxGeometry width="50" height="50" relative="1" as="geometry">
            <mxPoint x="670" y="150" as="sourcePoint" />
            <mxPoint x="640" y="70" as="targetPoint" />
            <Array as="points">
              <mxPoint x="670" y="60" />
            </Array>
          </mxGeometry>
        </mxCell>
        <mxCell id="7aIImnM2KkTJNSzlAETj-51" value="" style="endArrow=none;html=1;rounded=0;entryX=0.5;entryY=1;entryDx=0;entryDy=0;exitX=0.058;exitY=0.017;exitDx=0;exitDy=0;exitPerimeter=0;" edge="1" parent="1" source="7aIImnM2KkTJNSzlAETj-9" target="7aIImnM2KkTJNSzlAETj-10">
          <mxGeometry width="50" height="50" relative="1" as="geometry">
            <mxPoint x="650" y="160" as="sourcePoint" />
            <mxPoint x="610" y="50" as="targetPoint" />
          </mxGeometry>
        </mxCell>
        <mxCell id="7aIImnM2KkTJNSzlAETj-52" value="" style="endArrow=none;html=1;rounded=0;entryX=0.44;entryY=0.98;entryDx=0;entryDy=0;exitX=0.058;exitY=0.017;exitDx=0;exitDy=0;entryPerimeter=0;exitPerimeter=0;" edge="1" parent="1" source="7aIImnM2KkTJNSzlAETj-9" target="7aIImnM2KkTJNSzlAETj-11">
          <mxGeometry width="50" height="50" relative="1" as="geometry">
            <mxPoint x="520" y="140" as="sourcePoint" />
            <mxPoint x="570" y="90" as="targetPoint" />
          </mxGeometry>
        </mxCell>
        <mxCell id="7aIImnM2KkTJNSzlAETj-53" value="" style="endArrow=none;html=1;rounded=0;entryX=0;entryY=0.5;entryDx=0;entryDy=0;exitX=1;exitY=0.5;exitDx=0;exitDy=0;exitPerimeter=0;" edge="1" parent="1" source="7aIImnM2KkTJNSzlAETj-8" target="7aIImnM2KkTJNSzlAETj-9">
          <mxGeometry width="50" height="50" relative="1" as="geometry">
            <mxPoint x="520" y="300" as="sourcePoint" />
            <mxPoint x="570" y="250" as="targetPoint" />
          </mxGeometry>
        </mxCell>
        <mxCell id="7aIImnM2KkTJNSzlAETj-54" value="" style="endArrow=none;html=1;rounded=0;entryX=0;entryY=0.5;entryDx=0;entryDy=0;entryPerimeter=0;exitX=1;exitY=0.5;exitDx=0;exitDy=0;" edge="1" parent="1" source="7aIImnM2KkTJNSzlAETj-1" target="7aIImnM2KkTJNSzlAETj-8">
          <mxGeometry width="50" height="50" relative="1" as="geometry">
            <mxPoint x="400" y="300" as="sourcePoint" />
            <mxPoint x="450" y="250" as="targetPoint" />
          </mxGeometry>
        </mxCell>
        <mxCell id="7aIImnM2KkTJNSzlAETj-55" value="" style="endArrow=none;html=1;rounded=0;entryX=0.5;entryY=1;entryDx=0;entryDy=0;exitX=0.5;exitY=0;exitDx=0;exitDy=0;" edge="1" parent="1" source="7aIImnM2KkTJNSzlAETj-1" target="7aIImnM2KkTJNSzlAETj-3">
          <mxGeometry width="50" height="50" relative="1" as="geometry">
            <mxPoint x="190" y="270" as="sourcePoint" />
            <mxPoint x="240" y="220" as="targetPoint" />
          </mxGeometry>
        </mxCell>
        <mxCell id="7aIImnM2KkTJNSzlAETj-56" value="" style="endArrow=none;html=1;rounded=0;entryX=0;entryY=0.25;entryDx=0;entryDy=0;exitX=1;exitY=1;exitDx=0;exitDy=0;" edge="1" parent="1" source="7aIImnM2KkTJNSzlAETj-2" target="7aIImnM2KkTJNSzlAETj-1">
          <mxGeometry width="50" height="50" relative="1" as="geometry">
            <mxPoint x="180" y="320" as="sourcePoint" />
            <mxPoint x="230" y="270" as="targetPoint" />
          </mxGeometry>
        </mxCell>
        <mxCell id="7aIImnM2KkTJNSzlAETj-57" value="" style="endArrow=none;html=1;rounded=0;entryX=0.5;entryY=1;entryDx=0;entryDy=0;exitX=0.5;exitY=0;exitDx=0;exitDy=0;" edge="1" parent="1" source="7aIImnM2KkTJNSzlAETj-4" target="7aIImnM2KkTJNSzlAETj-1">
          <mxGeometry width="50" height="50" relative="1" as="geometry">
            <mxPoint x="170" y="290" as="sourcePoint" />
            <mxPoint x="220" y="240" as="targetPoint" />
          </mxGeometry>
        </mxCell>
        <mxCell id="7aIImnM2KkTJNSzlAETj-58" value="" style="endArrow=none;html=1;rounded=0;entryX=0.5;entryY=1;entryDx=0;entryDy=0;exitX=0.5;exitY=0;exitDx=0;exitDy=0;exitPerimeter=0;" edge="1" parent="1" source="7aIImnM2KkTJNSzlAETj-5" target="7aIImnM2KkTJNSzlAETj-1">
          <mxGeometry width="50" height="50" relative="1" as="geometry">
            <mxPoint x="300" y="280" as="sourcePoint" />
            <mxPoint x="280" y="220" as="targetPoint" />
          </mxGeometry>
        </mxCell>
        <mxCell id="7aIImnM2KkTJNSzlAETj-59" value="" style="endArrow=none;html=1;rounded=0;entryX=0.222;entryY=0.7;entryDx=0;entryDy=0;entryPerimeter=0;exitX=1;exitY=0;exitDx=0;exitDy=0;" edge="1" parent="1" source="7aIImnM2KkTJNSzlAETj-6" target="7aIImnM2KkTJNSzlAETj-5">
          <mxGeometry width="50" height="50" relative="1" as="geometry">
            <mxPoint x="90" y="530" as="sourcePoint" />
            <mxPoint x="140" y="480" as="targetPoint" />
          </mxGeometry>
        </mxCell>
        <mxCell id="7aIImnM2KkTJNSzlAETj-60" value="" style="endArrow=none;html=1;rounded=0;exitX=0.5;exitY=0;exitDx=0;exitDy=0;entryX=0.206;entryY=0.729;entryDx=0;entryDy=0;entryPerimeter=0;" edge="1" parent="1" source="7aIImnM2KkTJNSzlAETj-7" target="7aIImnM2KkTJNSzlAETj-5">
          <mxGeometry width="50" height="50" relative="1" as="geometry">
            <mxPoint x="230" y="530" as="sourcePoint" />
            <mxPoint x="290" y="350" as="targetPoint" />
          </mxGeometry>
        </mxCell>
        <mxCell id="7aIImnM2KkTJNSzlAETj-61" value="" style="endArrow=none;html=1;rounded=0;entryX=0.952;entryY=0.529;entryDx=0;entryDy=0;entryPerimeter=0;exitX=0.008;exitY=0.133;exitDx=0;exitDy=0;exitPerimeter=0;" edge="1" parent="1" source="7aIImnM2KkTJNSzlAETj-27" target="7aIImnM2KkTJNSzlAETj-5">
          <mxGeometry width="50" height="50" relative="1" as="geometry">
            <mxPoint x="360" y="630" as="sourcePoint" />
            <mxPoint x="410" y="580" as="targetPoint" />
          </mxGeometry>
        </mxCell>
        <mxCell id="7aIImnM2KkTJNSzlAETj-62" value="&lt;span style=&quot;font-weight: normal&quot;&gt;&lt;font style=&quot;font-size: 18px&quot;&gt;1&lt;/font&gt;&lt;/span&gt;" style="text;strokeColor=none;fillColor=none;html=1;fontSize=24;fontStyle=1;verticalAlign=middle;align=center;" vertex="1" parent="1">
          <mxGeometry x="970" y="390" width="30" height="40" as="geometry" />
        </mxCell>
        <mxCell id="7aIImnM2KkTJNSzlAETj-63" value="&lt;span style=&quot;font-weight: normal&quot;&gt;&lt;font style=&quot;font-size: 16px&quot;&gt;M&lt;/font&gt;&lt;/span&gt;" style="text;strokeColor=none;fillColor=none;html=1;fontSize=24;fontStyle=1;verticalAlign=middle;align=center;" vertex="1" parent="1">
          <mxGeometry x="1226" y="205" width="30" height="40" as="geometry" />
        </mxCell>
        <mxCell id="7aIImnM2KkTJNSzlAETj-64" value="&lt;span style=&quot;font-weight: normal&quot;&gt;&lt;font style=&quot;font-size: 16px&quot;&gt;M&lt;/font&gt;&lt;/span&gt;" style="text;strokeColor=none;fillColor=none;html=1;fontSize=24;fontStyle=1;verticalAlign=middle;align=center;" vertex="1" parent="1">
          <mxGeometry x="1126" y="140" width="30" height="40" as="geometry" />
        </mxCell>
        <mxCell id="7aIImnM2KkTJNSzlAETj-65" value="&lt;span style=&quot;font-weight: normal&quot;&gt;&lt;font style=&quot;font-size: 16px&quot;&gt;M&lt;/font&gt;&lt;/span&gt;" style="text;strokeColor=none;fillColor=none;html=1;fontSize=24;fontStyle=1;verticalAlign=middle;align=center;" vertex="1" parent="1">
          <mxGeometry x="960" y="140" width="30" height="40" as="geometry" />
        </mxCell>
        <mxCell id="7aIImnM2KkTJNSzlAETj-66" value="&lt;span style=&quot;font-weight: normal&quot;&gt;&lt;font style=&quot;font-size: 16px&quot;&gt;M&lt;/font&gt;&lt;/span&gt;" style="text;strokeColor=none;fillColor=none;html=1;fontSize=24;fontStyle=1;verticalAlign=middle;align=center;" vertex="1" parent="1">
          <mxGeometry x="750" y="140" width="30" height="40" as="geometry" />
        </mxCell>
        <mxCell id="7aIImnM2KkTJNSzlAETj-67" value="&lt;span style=&quot;font-weight: normal&quot;&gt;&lt;font style=&quot;font-size: 16px&quot;&gt;M&lt;/font&gt;&lt;/span&gt;" style="text;strokeColor=none;fillColor=none;html=1;fontSize=24;fontStyle=1;verticalAlign=middle;align=center;" vertex="1" parent="1">
          <mxGeometry x="570" y="140" width="30" height="40" as="geometry" />
        </mxCell>
        <mxCell id="7aIImnM2KkTJNSzlAETj-68" value="&lt;span style=&quot;font-weight: normal&quot;&gt;&lt;font style=&quot;font-size: 16px&quot;&gt;M&lt;/font&gt;&lt;/span&gt;" style="text;strokeColor=none;fillColor=none;html=1;fontSize=24;fontStyle=1;verticalAlign=middle;align=center;" vertex="1" parent="1">
          <mxGeometry x="350" y="140" width="30" height="40" as="geometry" />
        </mxCell>
        <mxCell id="7aIImnM2KkTJNSzlAETj-69" value="&lt;font style=&quot;font-size: 14px&quot;&gt;Campus&lt;br&gt;Location&lt;/font&gt;" style="ellipse;whiteSpace=wrap;html=1;" vertex="1" parent="1">
          <mxGeometry x="750" y="230" width="100" height="50" as="geometry" />
        </mxCell>
        <mxCell id="7aIImnM2KkTJNSzlAETj-70" value="" style="endArrow=none;html=1;rounded=0;fontSize=18;exitX=0.03;exitY=0.38;exitDx=0;exitDy=0;exitPerimeter=0;" edge="1" parent="1" source="7aIImnM2KkTJNSzlAETj-69">
          <mxGeometry width="50" height="50" relative="1" as="geometry">
            <mxPoint x="500" y="320" as="sourcePoint" />
            <mxPoint x="700" y="210" as="targetPoint" />
          </mxGeometry>
        </mxCell>
        <mxCell id="7aIImnM2KkTJNSzlAETj-71" value="" style="endArrow=none;html=1;rounded=0;fontSize=18;entryX=0.5;entryY=1;entryDx=0;entryDy=0;exitX=0.5;exitY=0;exitDx=0;exitDy=0;exitPerimeter=0;" edge="1" parent="1" source="7aIImnM2KkTJNSzlAETj-26" target="7aIImnM2KkTJNSzlAETj-9">
          <mxGeometry width="50" height="50" relative="1" as="geometry">
            <mxPoint x="570" y="280" as="sourcePoint" />
            <mxPoint x="620" y="230" as="targetPoint" />
          </mxGeometry>
        </mxCell>
        <mxCell id="7aIImnM2KkTJNSzlAETj-72" value="" style="endArrow=none;html=1;rounded=0;fontSize=18;entryX=0.5;entryY=1;entryDx=0;entryDy=0;entryPerimeter=0;exitX=0.5;exitY=0;exitDx=0;exitDy=0;" edge="1" parent="1" source="7aIImnM2KkTJNSzlAETj-27" target="7aIImnM2KkTJNSzlAETj-26">
          <mxGeometry width="50" height="50" relative="1" as="geometry">
            <mxPoint x="460" y="310" as="sourcePoint" />
            <mxPoint x="510" y="260" as="targetPoint" />
          </mxGeometry>
        </mxCell>
        <mxCell id="7aIImnM2KkTJNSzlAETj-73" value="&lt;span style=&quot;font-weight: normal&quot;&gt;&lt;font style=&quot;font-size: 16px&quot;&gt;M&lt;/font&gt;&lt;/span&gt;" style="text;strokeColor=none;fillColor=none;html=1;fontSize=24;fontStyle=1;verticalAlign=middle;align=center;" vertex="1" parent="1">
          <mxGeometry x="750" y="380" width="30" height="40" as="geometry" />
        </mxCell>
      </root>
    </mxGraphModel>
  </diagram>
</mxfile>
